# xmcd
#
# Track frame offsets:
#	150
#	17560
#	33060
#	47810
#	64200
#	78905
#	96508
#	112008
#	128620
#	144940
#	162260
#	179950
#	196780
#	210663
#	228223
#
# Disc length: 3225 seconds
#
# Revision: 0
# Processed by: cddbd v1.4PL0 Copyright (c) Steve Scherf et al.
# Submitted via: EasyCDDAExtractor 4.6.0.1
#
DISCID=c70c970f
DTITLE=Vários - Sertanejo de Ouro
DYEAR=1900
DGENRE=Sertanejo
TTITLE0=Foi Pensando em você
TTITLE1=Entre Tapas e Beijos
TTITLE2=Você é Tudo que Pedi pra Deus (Magia)
TTITLE3=Amo Você
TTITLE4=Amante Anônimo
TTITLE5=Basta Você Voltar
TTITLE6=Haja Coração
TTITLE7=Vá com Deus
TTITLE8=Viva a Vida!
TTITLE9=Ausência
TTITLE10=Quem será seu outro amor
TTITLE11=Uma Lágrima
TTITLE12=Que Pena
TTITLE13=Dia de Formatura
TTITLE14=Por causa de você
EXTD=
EXTT0=
EXTT1=
EXTT2=
EXTT3=
EXTT4=
EXTT5=
EXTT6=
EXTT7=
EXTT8=
EXTT9=
EXTT10=
EXTT11=
EXTT12=
EXTT13=
EXTT14=
PLAYORDER=
